<svg id="icon-play" viewBox="0 0 35 32" width="100%" height="100%"><title>Play</title>
<path d="M34.924 16.877c-0.004 5.69-2.288 9.894-6.975 12.351-4.171 2.186-8.18 3.153-12.273 2.693-2.726-0.306-5.233-1.202-7.523-2.684-3.074-1.988-5.392-4.683-6.978-8.048-1.788-3.795-1.494-7.634 0.586-11.827 2.519-5.078 6.669-8.138 12.321-9.083 4.165-0.696 8.004-0.104 11.306 1.917 1.926 1.178 3.779 2.531 5.498 4.011 2.199 1.892 3.329 4.457 3.8 7.895 0.011 0.080 0.011 0.080 0.021 0.159 0.073 0.579 0.090 0.791 0.175 2.050 0.014 0.209 0.025 0.36 0.037 0.5l-0.777 0.065 0.779 0.001zM33.462 17.002l-0.711-0.001 0.709-0.059c-0.011-0.127-0.021-0.265-0.033-0.456-0.078-1.148-0.093-1.342-0.16-1.87-0.009-0.073-0.009-0.073-0.019-0.145-0.43-3.135-1.461-5.475-3.466-7.201-1.568-1.35-3.258-2.583-5.015-3.658-3.012-1.843-6.513-2.384-10.312-1.749-5.155 0.862-8.94 3.653-11.238 8.284-1.897 3.825-2.165 7.326-0.534 10.788 1.446 3.069 3.56 5.527 6.364 7.34 2.089 1.351 4.375 2.168 6.861 2.448 3.733 0.419 7.39-0.462 11.194-2.456 4.275-2.241 6.358-6.076 6.362-11.265zM33.368 16.941l0.777-0.065-0.779-0.001c0 0.011-0 0.021-0 0.032s0.002 0.022 0.003 0.033z"></path><path d="M13.913 12.373v8.745c0 0.432 0.465 0.692 0.819 0.459l6.636-4.372c0.326-0.215 0.326-0.704 0-0.919l-6.636-4.373c-0.354-0.233-0.819 0.028-0.819 0.46z">
</path></svg>
